<?xml version="1.0" encoding="UTF-8" standalone="no"?>
<!-- Created with Inkscape (http://www.inkscape.org/) -->

<svg
   width="137mm"
   height="160mm"
   viewBox="0 0 137 160"
   version="1.1"
   id="svg5"
   inkscape:version="1.1.2 (0a00cf5339, 2022-02-04)"
   sodipodi:docname="logo.svg"
   xmlns:inkscape="http://www.inkscape.org/namespaces/inkscape"
   xmlns:sodipodi="http://sodipodi.sourceforge.net/DTD/sodipodi-0.dtd"
   xmlns="http://www.w3.org/2000/svg"
   xmlns:svg="http://www.w3.org/2000/svg">
  <sodipodi:namedview
     id="namedview7"
     pagecolor="#ffffff"
     bordercolor="#666666"
     borderopacity="1.0"
     inkscape:pageshadow="2"
     inkscape:pageopacity="0.0"
     inkscape:pagecheckerboard="0"
     inkscape:document-units="mm"
     showgrid="false"
     showguides="true"
     inkscape:guide-bbox="true"
     inkscape:zoom="0.7198092"
     inkscape:cx="53.486396"
     inkscape:cy="227.14353"
     inkscape:window-width="1850"
     inkscape:window-height="1016"
     inkscape:window-x="0"
     inkscape:window-y="0"
     inkscape:window-maximized="1"
     inkscape:current-layer="layer1" />
  <defs
     id="defs2" />
  <g
     inkscape:label="Layer 1"
     inkscape:groupmode="layer"
     id="layer1">
    <path
       style="fill:#ff563d;fill-opacity:1;stroke-width:0.264583"
       d="m 54.898599,151.88629 -2.30108,-2.35761 v -16.4266 -16.4266 l 2.27052,-2.25016 c 1.46201,-1.44891 2.47704,-2.25017 2.85048,-2.25017 0.37505,0 1.28624,0.7245 2.57892,2.05052 3.215068,3.29802 2.906211,1.19116 2.823351,19.25885 l -0.0722,15.75312 -2.540075,2.50313 c -1.397046,1.37672 -2.713046,2.50313 -2.924436,2.50313 -0.2114,0 -1.41984,-1.06092 -2.68543,-2.35761 z m 29.836828,0.0921 c -1.811638,-1.83216 -2.240115,-2.41769 -2.240115,-3.06118 0,-1.12422 1.330741,-2.92702 3.091062,-4.18757 l 1.492971,-1.06909 h 12.484868 12.484927 l 1.03189,0.75554 c 1.67322,1.22513 4.07459,3.90683 4.07459,4.55024 0,0.53745 -1.51846,2.17864 -4.17639,4.51394 l -0.8691,0.76361 H 99.542803 86.975545 Z m -7.492865,-7.37993 -2.420128,-2.50166 v -12.79629 -12.79628 l 2.347168,-2.29684 c 2.354495,-2.30401 2.859612,-2.55778 3.894816,-1.95674 0.808557,0.46945 4.074049,4.1859 4.228816,4.8128 0.0727,0.2946 0.098,6.01494 0.0562,12.71186 l -0.076,12.17622 -0.926034,1.17582 c -1.548761,1.9665 -3.664139,3.97278 -4.188806,3.97278 -0.279207,0 -1.553411,-1.09315 -2.916012,-2.50167 z m 40.237878,1.11261 c -0.89925,-0.76399 -2.02481,-1.92155 -2.50126,-2.57236 l -0.86626,-1.1833 v -12.79082 -12.79083 l 2.24895,-2.09468 c 1.23693,-1.15207 2.52839,-2.1721 2.86991,-2.26672 0.5249,-0.14543 0.98528,0.1906 2.97656,2.17266 l 2.35562,2.3447 v 12.52022 c 0,10.24144 -0.0677,12.65026 -0.37198,13.23468 -0.41159,0.79057 -4.45321,4.81551 -4.83545,4.81551 -0.13261,0 -0.97685,-0.62508 -1.87609,-1.38906 z M 25.182377,115.10998 c -1.287039,-0.78481 -4.864023,-4.56206 -4.864023,-5.13634 0,-0.28568 0.913636,-1.4469 2.053331,-2.60975 1.583028,-1.61521 2.295088,-2.15111 3.108854,-2.33975 1.647605,-0.38195 24.44481,-0.30508 25.30949,0.0853 0.8836,0.39896 5.24707,4.51807 5.24707,4.95322 0,0.56674 -4.06366,4.54552 -5.15937,5.0516 -0.97905,0.4522 -1.95024,0.48917 -12.964583,0.49363 -11.237026,0.005 -11.952595,-0.0234 -12.730769,-0.49795 z m 61.675158,0.0108 c -1.529091,-0.69466 -4.626813,-4.10905 -4.626813,-5.09981 0,-1.15173 3.441062,-4.66616 4.894773,-4.99914 1.455021,-0.33328 23.832715,-0.3261 24.997735,0.008 1.09751,0.31477 5.29698,4.36744 5.29698,5.11182 0,0.69535 -3.05248,3.79808 -4.63021,4.70643 l -1.32292,0.76165 -11.773957,-0.003 c -10.823757,-0.003 -11.859564,-0.0422 -12.835588,-0.48564 z M 17.05075,107.86793 c -0.45839,-0.47718 -1.518047,-1.67764 -2.354791,-2.66769 l -1.521355,-1.80008 V 88.002962 72.605712 l 1.078294,-1.44808 c 1.384625,-1.859471 3.964987,-4.490801 4.403823,-4.490801 0.387643,0 1.945886,1.54437 3.818032,3.784051 l 1.283185,1.53509 v 16.02762 16.027618 l -2.29684,2.34718 c -2.619005,2.6764 -3.104264,2.8392 -4.410348,1.47957 z m 37.916049,-1.4076 -2.36928,-2.31847 V 87.882122 71.622372 l 2.3455,-2.345491 c 1.31239,-1.31239 2.56792,-2.3455 2.85048,-2.3455 0.60467,0 4.359957,3.743661 4.963154,4.947801 0.374477,0.74753 0.424177,2.63258 0.424177,16.08658 0,12.688188 -0.0632,15.359428 -0.377467,15.954268 -0.526187,0.99593 -4.123104,4.4579 -4.859994,4.67766 -0.51152,0.15255 -0.9809,-0.1845 -2.97657,-2.13736 z m 23.494594,1.14904 c -0.361437,-0.47387 -1.328061,-1.53249 -2.148058,-2.35249 l -1.490901,-1.49091 V 91.309112 78.852232 l 1.389051,-1.78608 c 3.346662,-4.30322 3.867029,-4.44791 6.405784,-1.7811 2.953865,3.10284 2.788435,2.15758 2.788435,15.93361 0,6.91165 -0.10551,12.183728 -0.250937,12.538718 -0.13802,0.33689 -1.126224,1.53527 -2.196018,2.66305 -1.720581,1.81387 -2.054428,2.05052 -2.892635,2.05052 -0.758504,0 -1.078684,-0.1719 -1.604721,-0.86158 z m 37.894637,-1.39305 -2.24311,-2.25464 -0.0808,-12.231288 c -0.0523,-7.9183 0.0161,-12.56347 0.19402,-13.17331 0.18281,-0.62664 0.97474,-1.62315 2.3655,-2.97656 2.68124,-2.60924 3.11723,-2.65673 5.04326,-0.54935 0.74656,0.81686 1.71101,1.99917 2.14321,2.62736 l 0.78583,1.14215 v 12.46308 12.463058 l -2.28668,2.37207 c -1.74024,1.80522 -2.45294,2.37206 -2.98241,2.37206 -0.52132,0 -1.258,-0.56517 -2.93884,-2.25463 z M 87.086215,76.645442 c -0.913784,-0.51659 -3.515829,-2.84824 -4.244126,-3.80309 -0.471907,-0.61871 -0.622717,-1.06721 -0.509937,-1.51656 0.0881,-0.35093 1.234354,-1.602291 2.547275,-2.780811 l 2.387148,-2.14276 h 12.448338 c 8.979687,0 12.609447,0.086 13.026337,0.30875 0.64007,0.34196 3.73548,3.462241 4.33504,4.369861 0.51518,0.7799 0.30734,1.10517 -2.37826,3.72191 l -2.24025,2.18281 -12.4016,-0.009 c -9.224926,-0.007 -12.547128,-0.0917 -12.969965,-0.33073 z M 13.469047,52.54238 13.571479,17.322039 11.467349,17.243799 C 10.31008,17.200769 9.2087506,17.03736 9.0199546,16.880673 8.7687779,16.672214 8.6766889,15.608994 8.6766889,12.917469 V 9.2391506 l 0.6786827,-0.258034 c 0.9361344,-0.3559177 17.4564664,-0.3414637 18.1241264,0.01586 0.467923,0.250425 0.511773,0.5859417 0.511773,3.9158324 0,2.479843 -0.101312,3.743251 -0.3175,3.959441 -0.187966,0.187964 -1.092293,0.3175 -2.216563,0.3175 -1.267079,0 -1.99725,0.11831 -2.19411,0.355514 -0.208812,0.251602 -0.314947,5.413622 -0.363127,17.660936 l -0.06808,17.305419 z m 21.467536,-0.0737 c -0.260781,-0.105227 -0.330729,-4.687453 -0.330729,-21.665636 0,-21.0174487 0.01223,-21.5387304 0.511773,-21.8060744 0.320148,-0.1713387 3.483261,-0.2738927 8.447767,-0.2738927 6.861765,0 7.992275,0.05628 8.351765,0.4157737 0.34034,0.3403367 0.41578,1.1228174 0.41578,4.3127074 0,2.678171 -0.0993,3.996232 -0.3175,4.214435 -0.21619,0.216189 -1.4796,0.3175 -3.95944,0.3175 -3.329894,0 -3.665412,0.04385 -3.915837,0.511772 -0.356153,0.66548 -0.356153,6.513058 0,7.178538 0.249658,0.466489 0.584443,0.511773 3.783537,0.511773 2.37695,0 3.61213,0.10247 3.82715,0.3175 0.21619,0.216188 0.3175,1.479597 0.3175,3.959442 0,3.329889 -0.0438,3.665407 -0.51177,3.915833 -0.28147,0.15064 -1.98407,0.273891 -3.78354,0.273891 -2.19193,0 -3.376559,0.104791 -3.589269,0.3175 -0.33434,0.334341 -0.468733,7.182609 -0.1569,7.995235 0.135731,0.353711 0.727112,0.418515 3.819229,0.418515 2.01225,0 3.96405,0.116115 4.33732,0.258035 l 0.67868,0.258035 v 4.211574 c 0,3.59633 -0.0611,4.235034 -0.41851,4.372173 -0.49936,0.191622 -17.030094,0.177808 -17.507006,-0.01463 z m 24.040176,-0.299299 c -0.15665,-0.292706 -0.16895,-1.433213 -0.0321,-2.976562 0.31293,-3.529502 0.76644,-8.17698 1.07034,-10.968702 0.14256,-1.309687 0.375266,-3.690937 0.517116,-5.291666 0.402497,-4.542203 1.742431,-18.784997 2.003748,-21.298958 0.0983,-0.945886 0.34956,-1.9931977 0.558297,-2.3273614 l 0.37953,-0.6075697 6.984498,0.0784 c 4.606836,0.05171 7.082961,0.1770177 7.273741,0.3680887 0.159087,0.159327 0.394307,1.5285444 0.522707,3.0427074 0.128397,1.514162 0.354727,3.943647 0.502947,5.398856 0.148227,1.455208 0.457087,4.669895 0.686364,7.143749 0.22928,2.473855 0.537177,5.688542 0.684207,7.14375 0.14703,1.455209 0.374007,3.955521 0.504397,5.55625 0.13039,1.600729 0.363837,4.160573 0.518777,5.688542 0.891474,8.791665 0.887284,8.722016 0.549557,9.12895 -0.263797,0.317857 -1.066654,0.395251 -4.066576,0.391999 -2.055848,-0.0021 -3.901589,-0.107736 -4.101636,-0.234458 -0.25153,-0.159319 -0.42478,-1.14355 -0.561567,-3.190118 -0.1088,-1.627841 -0.33002,-3.091911 -0.491597,-3.253486 -0.31975,-0.319755 -3.905699,-0.386263 -4.214609,-0.07817 -0.104107,0.103841 -0.256637,1.479909 -0.338957,3.057932 -0.0922,1.767163 -0.282447,3.02914 -0.495407,3.285741 -0.286197,0.34485 -1.022194,0.416611 -4.272776,0.416611 -3.505511,0 -3.954291,-0.05094 -4.180991,-0.474528 z M 71.698842,37.858934 c 0.10102,-0.09019 0.0737,-1.473666 -0.0608,-3.074395 -0.727627,-8.662509 -1.157834,-12.832292 -1.323941,-12.832292 -0.26943,0 -0.512457,2.134394 -0.783307,6.879167 -0.227127,3.979135 -0.403217,6.005478 -0.681727,7.845345 -0.177117,1.170017 0.40363,1.688415 1.675861,1.495955 0.544627,-0.08239 1.072894,-0.223592 1.173914,-0.31378 z m 17.744738,14.57271 c -0.256017,-0.165712 -0.329727,-4.898618 -0.336847,-21.628693 -0.008,-19.927501 0.0224,-21.4396184 0.444447,-21.7482144 0.3321,-0.2428437 2.067938,-0.3316547 6.482274,-0.3316547 5.962976,0 6.032866,0.0065 6.408896,0.5953127 0.42384,0.6636947 1.01096,4.2979034 1.76319,10.9140614 0.14891,1.309687 0.32823,2.546588 0.39848,2.748671 0.0703,0.202081 0.24131,1.462649 0.38011,2.80126 0.27969,2.697168 0.77534,5.272964 0.97604,5.072261 0.22757,-0.227568 0.63829,-2.334069 1.01355,-5.198234 0.37719,-2.878947 0.8778,-6.670096 1.57217,-11.90625 0.54205,-4.0874457 0.63633,-4.4600824 1.20551,-4.7646994 0.66569,-0.3562627 12.04535,-0.3459607 12.71328,0.01151 0.49954,0.267344 0.51178,0.7885557 0.51178,21.7998154 0,19.384753 -0.0416,21.541901 -0.41852,21.686525 -0.81038,0.310975 -7.39644,0.177305 -7.73065,-0.156901 -0.23692,-0.236923 -0.3175,-3.153891 -0.3175,-11.493759 0,-10.35168 -0.1903,-13.344657 -0.65799,-10.348719 -0.0966,0.619083 -0.33592,2.018572 -0.53172,3.109979 -0.1958,1.091406 -0.54834,3.234531 -0.78342,4.7625 -0.23508,1.527968 -0.59533,3.790156 -0.80055,5.027083 -0.20522,1.236927 -0.56865,3.558646 -0.80762,5.159375 -0.66852,4.477946 -0.23519,4.101041 -4.71501,4.101041 -2.98285,0 -3.87796,-0.08222 -4.1241,-0.378798 -0.17291,-0.208339 -0.42658,-1.190604 -0.56372,-2.182813 -0.13713,-0.992208 -0.3632,-2.399326 -0.50237,-3.12693 -0.13917,-0.727604 -0.43585,-2.424245 -0.65931,-3.770313 -2.208818,-13.305919 -2.443448,-14.521111 -2.745525,-14.219531 -0.0959,0.09569 -0.23381,5.432714 -0.306567,11.860043 l -0.13229,11.686051 -3.704139,0.06607 c -2.037288,0.03634 -3.851629,-0.02938 -4.031879,-0.146052 z"
       id="path1424"
       sodipodi:nodetypes="ccccsssccssccssscccssscccsccccsscscssscsscccssscsssscssscssccccsssssccccsscccssscccsssscccssssssssscccsssssssccssssscccsssccssscscssccccccssscsssssssccssssssssssssscssssscscsscsccscssssssscscsssssssssscscsssscssssccsssssscsscssssssssccscsss" />
    <path
       style="fill:#000000;stroke-width:0.264583"
       id="path1034"
       d="" />
    <path
       style="fill:#000000;stroke-width:0.264583"
       id="path896"
       d="" />
    <path
       style="fill:#000000;stroke-width:0.264583"
       id="path876"
       d="" />
    <path
       style="fill:#000000;stroke-width:0.264583"
       id="path856"
       d="" />
    <path
       style="fill:#000000;stroke-width:0.264583"
       id="path836"
       d="" />
  </g>
</svg>
